<svg width="200" height="200" viewBox="0 -10 200 200" fill="none" xmlns="http://www.w3.org/2000/svg">
<path fill-rule="evenodd" clip-rule="evenodd" d="M91.3661 15.2591C115.852 -0.419746 149.718 6.88929 166.866 31.5512V31.6838C170.936 37.4107 173.827 43.8966 175.37 50.7612C176.913 57.6257 177.077 64.7313 175.852 71.6599C174.656 78.2731 172.143 84.5758 168.466 90.1895C173.838 100.482 175.643 112.281 173.593 123.719C172.365 130.495 169.748 136.94 165.911 142.646C162.074 148.353 157.099 153.194 151.302 156.867L108.3 184.296C83.8152 199.975 49.9481 192.666 32.8003 168.004C28.7279 162.279 25.8351 155.793 24.2919 148.928C22.7487 142.063 22.5862 134.957 23.8143 128.028C24.9974 121.414 27.5048 115.11 31.1845 109.498C25.8155 99.2001 24.0169 87.395 26.0732 75.9524C27.2922 69.1735 29.9042 62.7236 33.7426 57.0159C37.5809 51.3089 42.5612 46.4688 48.3654 42.8049L91.3661 15.2591ZM66.6885 169.346C73.246 171.792 80.3924 172.157 87.1627 170.39C90.2528 169.555 93.1994 168.254 95.9011 166.53L138.919 138.983C142.414 136.773 145.411 133.853 147.719 130.411C150.028 126.969 151.596 123.081 152.324 118.995C153.061 114.829 152.962 110.557 152.033 106.431C151.105 102.304 149.365 98.4047 146.915 94.9632C142.933 89.1875 137.282 84.7799 130.726 82.338C124.171 79.8949 117.028 79.5349 110.262 81.3063C107.167 82.1277 104.218 83.4303 101.523 85.1684L85.035 95.6758C84.2173 96.1891 83.3279 96.58 82.3976 96.8361C80.3701 97.3495 78.2362 97.232 76.278 96.4972C74.3197 95.7636 72.63 94.4474 71.4325 92.7254C70.694 91.6851 70.1683 90.5074 69.885 89.2617C69.6029 88.016 69.5683 86.7258 69.7835 85.4665C70.0062 84.2369 70.48 83.0679 71.1752 82.0325C71.8716 80.9971 72.7722 80.1175 73.8237 79.4495L116.842 51.9538C117.656 51.4335 118.546 51.0422 119.479 50.7936C121.497 50.2598 123.628 50.356 125.59 51.0696C127.551 51.7831 129.25 53.08 130.46 54.7878C131.78 56.6571 132.399 58.9345 132.208 61.2181L132.06 62.8757L133.709 63.3569C139.75 65.1952 145.438 68.054 150.526 71.8096L152.719 73.4672L153.545 70.9808C153.968 69.6609 154.309 68.315 154.566 66.953C155.305 62.7879 155.207 58.5152 154.278 54.3877C153.35 50.2603 151.609 46.3615 149.158 42.921C145.176 37.144 139.526 32.7349 132.971 30.2896C126.416 27.8442 119.272 27.4805 112.505 29.2475C109.437 30.0809 106.512 31.3774 103.832 33.0927L60.7643 60.6379C57.2697 62.8498 54.2723 65.7692 51.9641 69.2106C49.6559 72.6533 48.0876 76.5413 47.3595 80.6272C46.6156 84.7898 46.7064 89.0589 47.6266 93.1856C48.5468 97.3136 50.2779 101.214 52.7182 104.659C56.7008 110.421 62.344 114.82 68.8879 117.261C75.4318 119.703 82.5634 120.071 89.3225 118.316C92.4052 117.487 95.3481 116.19 98.0449 114.47L114.533 103.947C115.347 103.426 116.238 103.035 117.171 102.786C119.209 102.254 121.361 102.363 123.336 103.098C125.312 103.833 127.015 105.159 128.217 106.896C128.96 107.932 129.488 109.106 129.771 110.351C130.053 111.594 130.087 112.882 129.866 114.139C129.65 115.372 129.177 116.546 128.482 117.585C127.786 118.624 126.881 119.505 125.827 120.172L82.8912 147.718C82.0747 148.235 81.1853 148.626 80.2538 148.878C78.2152 149.41 76.0627 149.301 74.0884 148.565C72.1129 147.83 70.4095 146.506 69.2071 144.768C67.8859 142.916 67.2501 140.659 67.4097 138.387L67.5581 136.729L65.9091 136.248C59.8885 134.425 54.2188 131.589 49.1402 127.862L46.9309 126.205L46.123 128.691C45.6857 129.996 45.344 131.331 45.1007 132.685C44.3596 136.851 44.4547 141.122 45.3808 145.249C46.3067 149.377 48.0446 153.276 50.4923 156.717C54.4784 162.494 60.1322 166.902 66.6885 169.346Z" fill="currentColor"/>
</svg>
